<svg width="64.000000" height="64.000000" viewBox="0 0 64 64" fill="none" xmlns="http://www.w3.org/2000/svg" xmlns:xlink="http://www.w3.org/1999/xlink">
	<desc>
			Created with Pixso.
	</desc>
	<defs/>
	<rect id="Rectangle 19" width="64.000000" height="64.000000" fill="#C4C4C4" fill-opacity="0"/>
	<path id="3" d="M31.8601 42.2451C35.3089 42.2451 37.8732 40.0813 37.8732 37.1644C37.8732 34.905 36.5343 33.2613 34.2928 32.8907L34.2928 32.7472C36.0919 32.2033 37.2157 30.721 37.2157 28.7126C37.2157 26.1962 35.2253 23.9487 31.9318 23.9487C28.8535 23.9487 26.2953 25.8435 26.1936 28.6469L28.2797 28.6469C28.3574 26.8716 30.043 25.8316 31.8959 25.8316C33.8565 25.8316 35.1296 27.021 35.1296 28.8202C35.1296 30.697 33.6592 31.9164 31.5492 31.9164L30.1207 31.9164L30.1207 33.8291L31.5492 33.8291C34.251 33.8291 35.7572 35.2039 35.7572 37.1644C35.7572 39.0532 34.1135 40.3324 31.8242 40.3324C29.7621 40.3324 28.1303 39.2684 27.9988 37.547L25.8111 37.547C25.9366 40.3503 28.4052 42.2451 31.8601 42.2451Z" fill="#000000" fill-opacity="1.000000" fill-rule="evenodd"/>
</svg>
