<svg width="64.000000" height="64.000000" viewBox="0 0 64 64" fill="none" xmlns="http://www.w3.org/2000/svg" xmlns:xlink="http://www.w3.org/1999/xlink">
	<desc>
			Created with Pixso.
	</desc>
	<defs/>
	<rect id="Rectangle 14" width="64.000000" height="64.000000" fill="#C4C4C4" fill-opacity="0"/>
	<path id="5" d="M31.4058 42.2451C34.8009 42.2451 37.2874 39.7406 37.2874 36.3336C37.2874 32.8787 34.8845 30.3504 31.615 30.3504C30.4136 30.3504 29.254 30.7748 28.5188 31.3605L28.4172 31.3605L29.0448 26.1065L36.4864 26.1065L36.4864 24.1938L27.2337 24.1938L26.1578 32.9564L28.1721 33.2015C28.9133 32.6695 30.1745 32.287 31.2683 32.2989C33.5397 32.3169 35.1954 34.0383 35.1954 36.3635C35.1954 38.6527 33.5994 40.3324 31.4058 40.3324C29.5827 40.3324 28.1303 39.1548 27.9629 37.547L25.8769 37.547C26.0084 40.2606 28.3455 42.2451 31.4058 42.2451Z" fill="#000000" fill-opacity="1.000000" fill-rule="evenodd"/>
</svg>
