<svg width="64.000000" height="64.000000" viewBox="0 0 64 64" fill="none" xmlns="http://www.w3.org/2000/svg" xmlns:xlink="http://www.w3.org/1999/xlink">
	<desc>
			Created with Pixso.
	</desc>
	<defs/>
	<rect id="Rectangle 15" width="64.000000" height="64.000000" fill="#C4C4C4" fill-opacity="0"/>
	<path id="6" d="M31.7525 42.2451C35.3567 42.2869 37.6998 39.5732 37.6998 36.2619C37.6998 32.819 35.1535 30.3504 32.1051 30.3504C30.2701 30.3504 28.6921 31.247 27.7238 32.7174L27.5804 32.7174C27.5923 28.3779 29.2779 25.8615 32.0334 25.8615C33.9103 25.8615 35.04 27.045 35.4404 28.6469L37.5623 28.6469C37.126 25.8794 35.022 23.9487 32.0334 23.9487C28.0227 23.9487 25.566 27.4992 25.566 33.7933C25.566 40.3742 28.8356 42.2092 31.7525 42.2451ZM31.7525 40.3324C29.523 40.3324 27.8852 38.4256 27.8972 36.2977C27.9031 34.1638 29.6186 32.2631 31.8242 32.2631C34.0059 32.2631 35.6138 34.0563 35.6138 36.2619C35.6138 38.5212 33.9401 40.3324 31.7525 40.3324Z" fill="#000000" fill-opacity="1.000000" fill-rule="evenodd"/>
</svg>
