<svg width="64.000000" height="64.000000" viewBox="0 0 64 64" fill="none" xmlns="http://www.w3.org/2000/svg" xmlns:xlink="http://www.w3.org/1999/xlink">
	<desc>
			Created with Pixso.
	</desc>
	<defs/>
	<rect id="Rectangle 10" width="64.000000" height="64.000000" fill="#C4C4C4" fill-opacity="0"/>
	<path id="8" d="M31.5492 42.2451C35.0997 42.2451 37.5803 40.165 37.5982 37.272C37.5803 35.0186 36.074 33.1059 34.1553 32.7472L34.1553 32.6456C35.823 32.2093 36.9168 30.5775 36.9347 28.6827C36.9168 25.9691 34.6395 23.9487 31.5492 23.9487C28.4172 23.9487 26.1399 25.9691 26.1578 28.6827C26.1399 30.5775 27.2337 32.2093 28.9372 32.6456L28.9372 32.7472C26.9826 33.1059 25.4764 35.0186 25.4943 37.272C25.4764 40.165 27.9569 42.2451 31.5492 42.2451ZM31.5492 40.3324C29.1046 40.3324 27.5983 39.0771 27.6162 37.1644C27.5983 35.1561 29.26 33.7215 31.5492 33.7215C33.7967 33.7215 35.4584 35.1561 35.4763 37.1644C35.4584 39.0771 33.9521 40.3324 31.5492 40.3324ZM31.5492 31.8805C29.6007 31.8805 28.2259 30.6612 28.2438 28.8202C28.2259 27.0091 29.5469 25.8316 31.5492 25.8316C33.5098 25.8316 34.8307 27.0091 34.8487 28.8202C34.8307 30.6612 33.462 31.8805 31.5492 31.8805Z" fill="#000000" fill-opacity="1.000000" fill-rule="evenodd"/>
</svg>
