<svg width="64.000000" height="64.000000" viewBox="0 0 64 64" fill="none" xmlns="http://www.w3.org/2000/svg" xmlns:xlink="http://www.w3.org/1999/xlink">
	<desc>
			Created with Pixso.
	</desc>
	<defs/>
	<rect id="Rectangle 11" width="64.000000" height="64.000000" fill="#C4C4C4" fill-opacity="0"/>
	<path id="9" d="M31.5134 23.9487C27.8972 23.9069 25.566 26.6265 25.566 29.8961C25.566 33.339 28.1064 35.8076 31.1667 35.8076C33.0077 35.8076 34.5737 34.905 35.548 33.4466L35.6855 33.4466C35.6855 37.8279 33.982 40.3324 31.2325 40.3324C29.3556 40.3324 28.208 39.1489 27.8254 37.5111L25.7035 37.5111C26.1219 40.3324 28.2438 42.2451 31.2325 42.2451C35.2312 42.2451 37.6998 38.6946 37.6998 32.3647C37.6998 25.8316 34.4303 23.9846 31.5134 23.9487ZM31.5134 25.8615C33.7369 25.8615 35.3747 27.7742 35.3747 29.8602C35.3747 31.9822 33.6353 33.8949 31.4417 33.8949C29.254 33.8949 27.6521 32.1256 27.6521 29.8961C27.6521 27.6726 29.3197 25.8615 31.5134 25.8615Z" fill="#000000" fill-opacity="1.000000" fill-rule="evenodd"/>
</svg>
