<svg width="72.000000" height="72.000000" viewBox="0 0 72 72" fill="none" xmlns="http://www.w3.org/2000/svg" xmlns:xlink="http://www.w3.org/1999/xlink">
	<desc>
			Created with Pixso.
	</desc>
	<defs>
		<filter id="filter_0_20_dd" x="0.000000" y="0.000000" width="72.000000" height="72.000000" filterUnits="userSpaceOnUse" color-interpolation-filters="sRGB">
			<feFlood flood-opacity="0" result="BackgroundImageFix"/>
			<feColorMatrix in="SourceAlpha" type="matrix" values="0 0 0 0 0 0 0 0 0 0 0 0 0 0 0 0 0 0 127 0" result="hardAlpha"/>
			<feOffset dx="0" dy="4"/>
			<feGaussianBlur stdDeviation="1.33333"/>
			<feComposite in2="hardAlpha" operator="out" k2="-1" k3="1"/>
			<feColorMatrix type="matrix" values="0 0 0 0 0 0 0 0 0 0 0 0 0 0 0 0 0 0 0.25 0"/>
			<feBlend mode="normal" in2="BackgroundImageFix" result="effect_dropShadow_1"/>
			<feBlend mode="normal" in="SourceGraphic" in2="effect_dropShadow_1" result="shape"/>
		</filter>
	</defs>
	<g filter="url(#filter_0_20_dd)">
		<rect id="C" x="4.000000" width="64.000000" height="64.000000" fill="#C4C4C4" fill-opacity="0"/>
	</g>
	<path id="C" d="M42.1995 27.7586C41.536 24.1065 38.6191 21.9487 35.0328 21.9487C30.4782 21.9487 27.1727 25.4634 27.1727 31.0999C27.1727 36.7305 30.4782 40.2451 35.0328 40.2451C38.6191 40.2451 41.536 38.0873 42.1995 34.4352L40.0417 34.4352C39.5217 36.9038 37.3998 38.2248 35.0328 38.2248C31.7991 38.2248 29.2588 35.7203 29.2588 31.0999C29.2588 26.4735 31.7991 23.9691 35.0328 23.9691C37.3998 23.9691 39.5217 25.29 40.0417 27.7586L42.1995 27.7586Z" fill="#FF6060" fill-opacity="1.000000" fill-rule="evenodd"/>
</svg>
