<svg width="64.000000" height="64.000000" viewBox="0 0 64 64" fill="none" xmlns="http://www.w3.org/2000/svg" xmlns:xlink="http://www.w3.org/1999/xlink">
	<desc>
			Created with Pixso.
	</desc>
	<defs>
		<clipPath id="clip0_48">
			<rect id="ic:round-history" width="28.000000" height="28.000000" transform="translate(18.000000 18.000000)" fill="white" fill-opacity="0"/>
		</clipPath>
	</defs>
	<rect id="Rectangle 18" width="64.000000" height="64.000000" fill="#C4C4C4" fill-opacity="0"/>
	<rect id="ic:round-history" width="28.000000" height="28.000000" transform="translate(18.000000 18.000000)" fill="#FFFFFF" fill-opacity="0"/>
	<g clip-path="url(#clip0_48)">
		<path id="Vector" d="M33.47 21.5C27.5317 21.3367 22.6667 26.1084 22.6667 32L20.5783 32C20.0533 32 19.7967 32.63 20.17 32.9917L23.425 36.2583C23.6583 36.4917 24.02 36.4917 24.2533 36.2583L27.5083 32.9917C27.589 32.9094 27.6434 32.8052 27.6649 32.692C27.6863 32.5789 27.6738 32.4619 27.6289 32.3558C27.584 32.2498 27.5087 32.1594 27.4125 32.0961C27.3163 32.0328 27.2035 31.9993 27.0883 32L25 32C25 27.45 28.71 23.775 33.2833 23.8333C37.6233 23.8917 41.275 27.5434 41.3333 31.8833C41.3917 36.445 37.7167 40.1667 33.1667 40.1667C31.2883 40.1667 29.55 39.525 28.1733 38.44C27.9499 38.264 27.6695 38.1762 27.3856 38.1934C27.1016 38.2106 26.8339 38.3316 26.6333 38.5334C26.1433 39.0233 26.1783 39.8517 26.7267 40.2717C28.5596 41.7212 30.8298 42.5067 33.1667 42.5C39.0583 42.5 43.83 37.635 43.6667 31.6967C43.515 26.225 38.9417 21.6517 33.47 21.5ZM32.875 27.3333C32.3967 27.3333 32 27.73 32 28.2083L32 32.5017C32 32.91 32.2217 33.295 32.5717 33.505L36.2117 35.6633C36.6317 35.9083 37.1683 35.7683 37.4133 35.36C37.6583 34.94 37.5183 34.4034 37.11 34.1583L33.75 32.1633L33.75 28.1967C33.75 27.73 33.3533 27.3333 32.875 27.3333Z" fill="#00B0D7" fill-opacity="1.000000" fill-rule="nonzero"/>
	</g>
</svg>
