<svg width="64.000000" height="64.000000" viewBox="0 0 64 64" fill="none" xmlns="http://www.w3.org/2000/svg" xmlns:xlink="http://www.w3.org/1999/xlink">
	<desc>
			Created with Pixso.
	</desc>
	<defs/>
	<rect id="Rectangle 6" width="64.000000" height="64.000000" fill="#C4C4C4" fill-opacity="0"/>
	<path id="%" d="M32.6347 36.6587C32.6347 38.6073 33.8541 40.2451 36.1135 40.2451C38.337 40.2451 39.5563 38.6073 39.5563 36.6587L39.5563 35.7203C39.5563 33.7777 38.3728 32.1399 36.1135 32.1399C33.8839 32.1399 32.6347 33.7777 32.6347 35.7203L32.6347 36.6587ZM23.7645 26.4735C23.7645 28.4221 24.9838 30.0539 27.2432 30.0539C29.4668 30.0539 30.6861 28.4221 30.6861 26.4735L30.6861 25.5351C30.6861 23.5865 29.5026 21.9487 27.2432 21.9487C25.0197 21.9487 23.7645 23.5865 23.7645 25.5351L23.7645 26.4735ZM24.428 40L26.4064 40L38.6478 22.1938L36.6693 22.1938L24.428 40ZM34.4099 35.7203C34.4099 34.6444 34.8941 33.6342 36.1135 33.6342C37.3627 33.6342 37.7811 34.6444 37.7811 35.7203L37.7811 36.6587C37.7811 37.7406 37.3268 38.7508 36.1135 38.7508C34.8582 38.7508 34.4099 37.7406 34.4099 36.6587L34.4099 35.7203ZM25.5397 25.5351C25.5397 24.4532 26.0239 23.449 27.2432 23.449C28.4985 23.449 28.9109 24.4532 28.9109 25.5351L28.9109 26.4735C28.9109 27.5494 28.4626 28.5596 27.2432 28.5596C25.994 28.5596 25.5397 27.5494 25.5397 26.4735L25.5397 25.5351Z" fill="#00B0D7" fill-opacity="1.000000" fill-rule="evenodd"/>
</svg>
