<svg width="64.000000" height="64.000000" viewBox="0 0 64 64" fill="none" xmlns="http://www.w3.org/2000/svg" xmlns:xlink="http://www.w3.org/1999/xlink">
	<desc>
			Created with Pixso.
	</desc>
	<defs/>
	<rect id="Rectangle 8" width="64.000000" height="64.000000" fill="#C4C4C4" fill-opacity="0"/>
	<path id="รท" d="M37.6341 33.6396L26.5045 33.6396L26.5045 35.5882L37.6341 35.5882L37.6341 33.6396ZM32.0693 31.6612C32.9001 31.6612 33.5994 30.9618 33.5994 30.0951C33.5994 29.2583 32.9001 28.565 32.0693 28.565C31.1966 28.565 30.5032 29.2583 30.5032 30.0951C30.5032 30.9618 31.1966 31.6612 32.0693 31.6612ZM32.0693 40.6689C32.9001 40.6689 33.5994 39.9695 33.5994 39.1028C33.5994 38.266 32.9001 37.5727 32.0693 37.5727C31.1966 37.5727 30.5032 38.266 30.5032 39.1028C30.5032 39.9695 31.1966 40.6689 32.0693 40.6689Z" fill="#00B0D7" fill-opacity="1.000000" fill-rule="evenodd"/>
</svg>
